<svg xmlns="http://www.w3.org/2000/svg" fill="none" viewBox="0 0 40 40" id="Science-Lab--Streamline-Stickies"><desc>Science Lab Streamline Icon: https://streamlinehq.com</desc><path fill="#48eeff" stroke="#231f20" stroke-miterlimit="10" d="M17.23.760005c-.83-.28-4.81.18-7.79.580005-2.98.4-6.94999 1-7.67 1.51-.40798.2279-.74293.56687-.965965.97753-.223033.41066-.32499.87617-.29403 1.34247.090861.45877.311658.88177.636095 1.21862.32445.33685.73886.57336 1.1939.68138.21539.05628.43741.08319.66001.08.21 2.13.47999 4.36999.75 6.36999.75999 5.68 1.98 13.2 3.25 14.48.75 1.4 3.87999 2.47 6.29999 2.15s5.16-2.2 5.51-3.74c.9-1.62.09-9.19-.68-14.88-.27-1.99999-.6-4.23-1-6.32999.2311-.03701.4564-.10426.67-.2.4072-.22625.7418-.56345.9648-.97238.2231-.40894.3254-.87279.2952-1.33762-.0891-.46277-.3088-.89037-.633-1.23235-.3243-.34197-.7396-.584051-1.197-.697655z" stroke-width="1"/><path fill="#ffe236" stroke="#231f20" stroke-miterlimit="10" d="M7.44 16.3c.09 1 .2 2 .33 2.88.35 2.58.92 6 1.62 6.57.4.62 2.11 1.07 3.46.89 1.35-.18 2.89-1.07 3.1-1.78.52-.75.18-4.18-.17-6.76-.12-.91-.28-1.91-.45-2.87L7.44 16.3z" stroke-width="1"/><path stroke="#231f20" stroke-linecap="round" stroke-miterlimit="10" d="M6 6.62c2.752-.1895 5.4882-.56368 8.19-1.12" stroke-width="1"/><path stroke="#231f20" stroke-linecap="round" stroke-miterlimit="10" d="M12.6 9.22c.692-.04838 1.3802-.14191 2.06-.28" stroke-width="1"/><path stroke="#231f20" stroke-linecap="round" stroke-miterlimit="10" d="M13 12.36c.6921-.0477 1.3803-.1413 2.06-.28" stroke-width="1"/><path fill="#231f20" d="M11.79 18.72c0 .2758.1096.5404.3046.7354.1951.195.4596.3046.7354.3046s.5404-.1096.7354-.3046.3046-.4596.3046-.7354c0-.2758-.1096-.5403-.3046-.7354-.195-.195-.4596-.3046-.7354-.3046s-.5403.1096-.7354.3046c-.195.1951-.3046.4596-.3046.7354z" stroke-width="1"/><path fill="#231f20" d="M10.29 23.11c0 .2758.1096.5404.3046.7354.1951.195.4596.3046.7354.3046s.5404-.1096.7354-.3046.3046-.4596.3046-.7354c0-.2758-.1096-.5403-.3046-.7354-.195-.195-.4596-.3046-.7354-.3046s-.5403.1096-.7354.3046c-.195.1951-.3046.4596-.3046.7354z" stroke-width="1"/><path stroke="#fff" stroke-linecap="round" stroke-miterlimit="10" d="M14.66 2.54c1.6-.17 1.95.0 2.15.19" stroke-width="1"/><path fill="#ff52a1" stroke="#231f20" stroke-linecap="round" stroke-miterlimit="10" d="M29.33 4.17001c0 .58613.2329 1.14825.6473 1.5627.4145.41446.9766.6473 1.5627.6473s1.1483-.23284 1.5627-.6473c.4145-.41445.6473-.97657.6473-1.5627s-.2328-1.14825-.6473-1.56271c-.4144-.41445-.9766-.64729-1.5627-.64729s-1.1482.23284-1.5627.64729c-.4144.41446-.6473.97658-.6473 1.56271z" stroke-width="1"/><path fill="#ff52a1" stroke="#231f20" stroke-linecap="round" stroke-miterlimit="10" d="M23.36 7.63c0 .20749.0409.41295.1203.60464.0794.1917.1958.36588.3425.51259.1467.14672.3209.2631.5126.3425.1917.07941.3971.12027.6046.12027s.413-.04086.6047-.12027c.1916-.0794.3658-.19578.5125-.3425.1468-.14671.2631-.32089.3425-.51259.0794-.19169.1203-.39715.1203-.60464s-.0409-.41294-.1203-.60464c-.0794-.19169-.1957-.36587-.3425-.51259-.1467-.14671-.3209-.26309-.5125-.3425-.1917-.0794-.3972-.12027-.6047-.12027s-.4129.04087-.6046.12027c-.1917.07941-.3659.19579-.5126.3425-.1467.14672-.2631.3209-.3425.51259-.0794.1917-.1203.39715-.1203.60464z" stroke-width="1"/><path fill="#ff52a1" stroke="#231f20" stroke-linecap="round" stroke-miterlimit="10" d="M36.34 12.08c0 .2075.0409.4129.1203.6046.0794.1917.1958.3659.3425.5126s.3209.2631.5126.3425.3971.1203.6046.1203c.2075.0.4129-.0409.6046-.1203s.3659-.1958.5126-.3425c.1467-.1467.2631-.3209.3425-.5126.0794-.1917.1203-.3971.1203-.6046s-.0409-.4129-.1203-.6046c-.0794-.1917-.1958-.3659-.3425-.5126s-.3209-.2631-.5126-.3425-.3971-.1203-.6046-.1203c-.2075.0-.4129.0409-.6046.1203s-.3659.1958-.5126.3425c-.1467.1467-.2631.3209-.3425.5126-.0794.1917-.1203.3971-.1203.6046z" stroke-width="1"/><path fill="#ff52a1" stroke="#231f20" stroke-miterlimit="10" d="M25.47 27.93c4.45.13 9.76-4.43 10.29-4.88 1-.89 2.36-2.12 2.37-2.65-.0153-.7454-.3076-1.4584-.82-2-.4633-.5967-1.1347-.9967-1.88-1.12-.6535.1525-1.2543.477-1.74.94-.33-.47-.69-1-1.06-1.38-.37-.38-.78-.85-1.19-1.25.64-.63 1.17-1.24 1.18-1.57-.0022-.7481-.2965-1.4657-.82-2-.4633-.5967-1.1347-.9967-1.88-1.12-.52-.06-1.94 1.06-3 1.95-.54.46-5.85 5-6.38 9.44-4.45-.14-9.76 4.42-10.29 4.88-1 .89-2.35 2.12-2.37 2.64.01532.7454.30765 1.4584.82 2 .56.65 1.5 1.2 1.89 1.11.6545-.1464 1.2583-.4639 1.75-.92.33.47.69.94 1.06 1.37.37.43.78.85 1.2 1.25-.65.63-1.18 1.25-1.19 1.58.0153.7454.3076 1.4584.82 2 .4657.5989 1.1411.9991 1.89 1.12.52.06 1.94-1.06 3-2 .51-.41 5.81-4.97 6.35-9.39z" stroke-width="1"/><path stroke="#231f20" stroke-miterlimit="10" d="M14.73 30c.9034.6939 1.6554 1.565 2.21 2.56l.26-.22c-.9034-.7071-1.6521-1.592-2.2-2.6l-.27.26z" stroke-width="1"/><path stroke="#231f20" stroke-miterlimit="10" d="M17.43 27.65c.9008.6978 1.6495 1.5724 2.2 2.57l.26-.23c-.8979-.6969-1.6461-1.5675-2.2-2.56l-.26.22z" stroke-width="1"/><path stroke="#231f20" stroke-miterlimit="10" d="M31.3 20.19c-.8981-.7006-1.6463-1.5746-2.2-2.57l-.26.23c.8838.7005 1.6183 1.5709 2.16 2.56l.3-.22z" stroke-width="1"/><path stroke="#231f20" stroke-miterlimit="10" d="M28.61 22.5c-.9057-.6914-1.6582-1.563-2.21-2.56l-.26.23c.9058.6914 1.6583 1.563 2.21 2.56l.26-.23z" stroke-width="1"/><path stroke="#231f20" stroke-linecap="round" stroke-miterlimit="10" d="M25.47 27.93c-1.5225-.1024-3.0087-.5106-4.37-1.2" stroke-width="1"/><path stroke="#231f20" stroke-linecap="round" stroke-miterlimit="10" d="M20.57 22.23c1.5225.1024 3.0087.5106 4.37 1.2" stroke-width="1"/><path stroke="#fff" stroke-linecap="round" stroke-miterlimit="10" d="M28.29 13.83c1.49-1.37 1.58-1.38 2.16-1" stroke-width="1"/><path stroke="#231f20" stroke-miterlimit="10" d="m23.33 22.77.69-.59c.2053.4826.5203.9106.92 1.25" stroke-width="1"/><path stroke="#231f20" stroke-miterlimit="10" d="M22.57 27.34 22 28c-.2299-.4414-.5156-.8514-.85-1.22" stroke-width="1"/></svg>